<svg width="207" height="36" viewBox="0 0 207 36" fill="none" xmlns="http://www.w3.org/2000/svg">
<path d="M0.861328 10.3516C0.861328 9.30859 1.06055 8.33008 1.45898 7.41602C1.85742 6.50195 2.39648 5.70508 3.07617 5.02539C3.76758 4.33398 4.57031 3.78906 5.48438 3.39062C6.39844 2.99219 7.37695 2.79297 8.41992 2.79297H19.9863V7.83789H8.41992C8.06836 7.83789 7.74023 7.90234 7.43555 8.03125C7.13086 8.16016 6.86133 8.3418 6.62695 8.57617C6.4043 8.79883 6.22852 9.0625 6.09961 9.36719C5.9707 9.67188 5.90625 10 5.90625 10.3516C5.90625 10.7031 5.9707 11.0371 6.09961 11.3535C6.22852 11.6582 6.4043 11.9277 6.62695 12.1621C6.86133 12.3848 7.13086 12.5605 7.43555 12.6895C7.74023 12.8184 8.06836 12.8828 8.41992 12.8828H13.4648C14.5078 12.8828 15.4863 13.082 16.4004 13.4805C17.3262 13.8672 18.1289 14.4062 18.8086 15.0977C19.5 15.7773 20.0391 16.5801 20.4258 17.5059C20.8242 18.4199 21.0234 19.3984 21.0234 20.4414C21.0234 21.4844 20.8242 22.4629 20.4258 23.377C20.0391 24.291 19.5 25.0938 18.8086 25.7852C18.1289 26.4648 17.3262 27.0039 16.4004 27.4023C15.4863 27.8008 14.5078 28 13.4648 28H2.26758V22.9551H13.4648C13.8164 22.9551 14.1445 22.8906 14.4492 22.7617C14.7539 22.6328 15.0176 22.457 15.2402 22.2344C15.4746 22 15.6562 21.7305 15.7852 21.4258C15.9141 21.1211 15.9785 20.793 15.9785 20.4414C15.9785 20.0898 15.9141 19.7617 15.7852 19.457C15.6562 19.1523 15.4746 18.8887 15.2402 18.666C15.0176 18.4316 14.7539 18.25 14.4492 18.1211C14.1445 17.9922 13.8164 17.9277 13.4648 17.9277H8.41992C7.37695 17.9277 6.39844 17.7285 5.48438 17.3301C4.57031 16.9316 3.76758 16.3926 3.07617 15.7129C2.39648 15.0215 1.85742 14.2188 1.45898 13.3047C1.06055 12.3789 0.861328 11.3945 0.861328 10.3516ZM28.6699 28H23.8359V1.68555H28.6699V18.2793L35.8242 9.20898H41.3438L35.1035 17.0488L41.3438 28H35.8242L32.0098 21.1621L28.6699 25.5918V28ZM50.1328 23.3945C50.3203 23.4531 50.5078 23.4941 50.6953 23.5176C50.8828 23.5293 51.0703 23.5352 51.2578 23.5352C51.7266 23.5352 52.1777 23.4707 52.6113 23.3418C53.0449 23.2129 53.4492 23.0312 53.8242 22.7969C54.2109 22.5508 54.5508 22.2578 54.8438 21.918C55.1484 21.5664 55.3945 21.1797 55.582 20.7578L59.0977 24.291C58.6523 24.9238 58.1367 25.4922 57.5508 25.9961C56.9766 26.5 56.3496 26.9277 55.6699 27.2793C55.002 27.6309 54.293 27.8945 53.543 28.0703C52.8047 28.2578 52.043 28.3516 51.2578 28.3516C49.9336 28.3516 48.6855 28.1055 47.5137 27.6133C46.3535 27.1211 45.334 26.4355 44.4551 25.5566C43.5879 24.6777 42.9023 23.6348 42.3984 22.4277C41.8945 21.209 41.6426 19.873 41.6426 18.4199C41.6426 16.9316 41.8945 15.5723 42.3984 14.3418C42.9023 13.1113 43.5879 12.0625 44.4551 11.1953C45.334 10.3281 46.3535 9.6543 47.5137 9.17383C48.6855 8.69336 49.9336 8.45312 51.2578 8.45312C52.043 8.45312 52.8105 8.54688 53.5605 8.73438C54.3105 8.92188 55.0195 9.19141 55.6875 9.54297C56.3672 9.89453 57 10.3281 57.5859 10.8438C58.1719 11.3477 58.6875 11.916 59.1328 12.5488L50.1328 23.3945ZM52.5938 13.498C52.3711 13.416 52.1484 13.3633 51.9258 13.3398C51.7148 13.3164 51.4922 13.3047 51.2578 13.3047C50.6016 13.3047 49.9805 13.4277 49.3945 13.6738C48.8203 13.9082 48.3164 14.248 47.8828 14.6934C47.4609 15.1387 47.127 15.6777 46.8809 16.3105C46.6348 16.9316 46.5117 17.6348 46.5117 18.4199C46.5117 18.5957 46.5176 18.7949 46.5293 19.0176C46.5527 19.2402 46.582 19.4688 46.6172 19.7031C46.6641 19.9258 46.7168 20.1426 46.7754 20.3535C46.834 20.5645 46.9102 20.752 47.0039 20.916L52.5938 13.498ZM79.6465 28H78.4863L76.623 25.416C76.166 25.8262 75.6797 26.2129 75.1641 26.5762C74.6602 26.9277 74.127 27.2383 73.5645 27.5078C73.002 27.7656 72.4219 27.9707 71.8242 28.123C71.2383 28.2754 70.6406 28.3516 70.0312 28.3516C68.707 28.3516 67.459 28.1289 66.2871 27.6836C65.127 27.2383 64.1074 26.5938 63.2285 25.75C62.3613 24.8945 61.6758 23.8516 61.1719 22.6211C60.668 21.3906 60.416 19.9902 60.416 18.4199C60.416 16.9551 60.668 15.6133 61.1719 14.3945C61.6758 13.1641 62.3613 12.1094 63.2285 11.2305C64.1074 10.3516 65.127 9.67188 66.2871 9.19141C67.459 8.69922 68.707 8.45312 70.0312 8.45312C70.6406 8.45312 71.2441 8.5293 71.8418 8.68164C72.4395 8.83398 73.0195 9.04492 73.582 9.31445C74.1445 9.58398 74.6777 9.90039 75.1816 10.2637C75.6973 10.627 76.1777 11.0195 76.623 11.4414L78.4863 9.20898H79.6465V28ZM74.8125 18.4199C74.8125 17.7637 74.6836 17.1309 74.4258 16.5215C74.1797 15.9004 73.8398 15.3555 73.4062 14.8867C72.9727 14.4062 72.4629 14.0254 71.877 13.7441C71.3027 13.4512 70.6875 13.3047 70.0312 13.3047C69.375 13.3047 68.7539 13.416 68.168 13.6387C67.5938 13.8613 67.0898 14.1895 66.6562 14.623C66.2344 15.0566 65.9004 15.5957 65.6543 16.2402C65.4082 16.873 65.2852 17.5996 65.2852 18.4199C65.2852 19.2402 65.4082 19.9727 65.6543 20.6172C65.9004 21.25 66.2344 21.7832 66.6562 22.2168C67.0898 22.6504 67.5938 22.9785 68.168 23.2012C68.7539 23.4238 69.375 23.5352 70.0312 23.5352C70.6875 23.5352 71.3027 23.3945 71.877 23.1133C72.4629 22.8203 72.9727 22.4395 73.4062 21.9707C73.8398 21.4902 74.1797 20.9453 74.4258 20.3359C74.6836 19.7148 74.8125 19.0762 74.8125 18.4199ZM88.1543 28H83.3203V1.68555H88.1543V18.2793L95.3086 9.20898H100.828L94.5879 17.0488L100.828 28H95.3086L91.4941 21.1621L88.1543 25.5918V28ZM109.617 23.3945C109.805 23.4531 109.992 23.4941 110.18 23.5176C110.367 23.5293 110.555 23.5352 110.742 23.5352C111.211 23.5352 111.662 23.4707 112.096 23.3418C112.529 23.2129 112.934 23.0312 113.309 22.7969C113.695 22.5508 114.035 22.2578 114.328 21.918C114.633 21.5664 114.879 21.1797 115.066 20.7578L118.582 24.291C118.137 24.9238 117.621 25.4922 117.035 25.9961C116.461 26.5 115.834 26.9277 115.154 27.2793C114.486 27.6309 113.777 27.8945 113.027 28.0703C112.289 28.2578 111.527 28.3516 110.742 28.3516C109.418 28.3516 108.17 28.1055 106.998 27.6133C105.838 27.1211 104.818 26.4355 103.939 25.5566C103.072 24.6777 102.387 23.6348 101.883 22.4277C101.379 21.209 101.127 19.873 101.127 18.4199C101.127 16.9316 101.379 15.5723 101.883 14.3418C102.387 13.1113 103.072 12.0625 103.939 11.1953C104.818 10.3281 105.838 9.6543 106.998 9.17383C108.17 8.69336 109.418 8.45312 110.742 8.45312C111.527 8.45312 112.295 8.54688 113.045 8.73438C113.795 8.92188 114.504 9.19141 115.172 9.54297C115.852 9.89453 116.484 10.3281 117.07 10.8438C117.656 11.3477 118.172 11.916 118.617 12.5488L109.617 23.3945ZM112.078 13.498C111.855 13.416 111.633 13.3633 111.41 13.3398C111.199 13.3164 110.977 13.3047 110.742 13.3047C110.086 13.3047 109.465 13.4277 108.879 13.6738C108.305 13.9082 107.801 14.248 107.367 14.6934C106.945 15.1387 106.611 15.6777 106.365 16.3105C106.119 16.9316 105.996 17.6348 105.996 18.4199C105.996 18.5957 106.002 18.7949 106.014 19.0176C106.037 19.2402 106.066 19.4688 106.102 19.7031C106.148 19.9258 106.201 20.1426 106.26 20.3535C106.318 20.5645 106.395 20.752 106.488 20.916L112.078 13.498ZM125.842 28H121.043V9.17383H122.203L123.785 11.4062C124.559 10.7031 125.438 10.1641 126.422 9.78906C127.406 9.40234 128.426 9.20898 129.48 9.20898H133.717V13.9902H129.48C128.977 13.9902 128.502 14.084 128.057 14.2715C127.611 14.459 127.225 14.7168 126.896 15.0449C126.568 15.373 126.311 15.7598 126.123 16.2051C125.936 16.6504 125.842 17.125 125.842 17.6289V28ZM139.57 26.207C139.57 26.6289 139.494 27.0273 139.342 27.4023C139.189 27.7656 138.979 28.082 138.709 28.3516C138.439 28.6211 138.123 28.832 137.76 28.9844C137.396 29.1484 137.004 29.2305 136.582 29.2305C136.172 29.2305 135.779 29.1484 135.404 28.9844C135.041 28.832 134.719 28.6211 134.438 28.3516C134.168 28.082 133.951 27.7656 133.787 27.4023C133.635 27.0273 133.559 26.6289 133.559 26.207C133.559 25.7969 133.635 25.4102 133.787 25.0469C133.951 24.6836 134.168 24.3672 134.438 24.0977C134.719 23.8281 135.041 23.6172 135.404 23.4648C135.779 23.3008 136.172 23.2188 136.582 23.2188C137.004 23.2188 137.396 23.3008 137.76 23.4648C138.123 23.6172 138.439 23.8281 138.709 24.0977C138.979 24.3672 139.189 24.6836 139.342 25.0469C139.494 25.4102 139.57 25.7969 139.57 26.207ZM163.266 25.416C162.094 26.4238 160.781 27.1973 159.328 27.7363C157.875 28.2754 156.369 28.5449 154.811 28.5449C153.615 28.5449 152.461 28.3867 151.348 28.0703C150.246 27.7656 149.209 27.332 148.236 26.7695C147.275 26.1953 146.396 25.5098 145.6 24.7129C144.803 23.916 144.117 23.0371 143.543 22.0762C142.98 21.1035 142.541 20.0664 142.225 18.9648C141.92 17.8516 141.768 16.6973 141.768 15.502C141.768 14.3066 141.92 13.1523 142.225 12.0391C142.541 10.9258 142.98 9.88867 143.543 8.92773C144.117 7.95508 144.803 7.07031 145.6 6.27344C146.396 5.47656 147.275 4.79688 148.236 4.23438C149.209 3.66016 150.246 3.2207 151.348 2.91602C152.461 2.59961 153.615 2.44141 154.811 2.44141C156.369 2.44141 157.875 2.71094 159.328 3.25C160.781 3.77734 162.094 4.55078 163.266 5.57031L160.594 9.96484C159.855 9.16797 158.982 8.55859 157.975 8.13672C156.967 7.70312 155.912 7.48633 154.811 7.48633C153.697 7.48633 152.654 7.69727 151.682 8.11914C150.709 8.54102 149.859 9.11523 149.133 9.8418C148.406 10.5566 147.832 11.4062 147.41 12.3906C146.988 13.3633 146.777 14.4004 146.777 15.502C146.777 16.6035 146.988 17.6406 147.41 18.6133C147.832 19.5742 148.406 20.418 149.133 21.1445C149.859 21.8711 150.709 22.4453 151.682 22.8672C152.654 23.2891 153.697 23.5 154.811 23.5C155.912 23.5 156.967 23.2891 157.975 22.8672C158.982 22.4336 159.855 21.8184 160.594 21.0215L163.266 25.416ZM171.352 4.05859C171.352 4.50391 171.264 4.91992 171.088 5.30664C170.924 5.69336 170.695 6.0332 170.402 6.32617C170.109 6.60742 169.764 6.83594 169.365 7.01172C168.979 7.17578 168.562 7.25781 168.117 7.25781C167.672 7.25781 167.25 7.17578 166.852 7.01172C166.465 6.83594 166.125 6.60742 165.832 6.32617C165.551 6.0332 165.322 5.69336 165.146 5.30664C164.982 4.91992 164.9 4.50391 164.9 4.05859C164.9 3.625 164.982 3.21484 165.146 2.82812C165.322 2.42969 165.551 2.08984 165.832 1.80859C166.125 1.51562 166.465 1.28711 166.852 1.12305C167.25 0.947266 167.672 0.859375 168.117 0.859375C168.562 0.859375 168.979 0.947266 169.365 1.12305C169.764 1.28711 170.109 1.51562 170.402 1.80859C170.695 2.08984 170.924 2.42969 171.088 2.82812C171.264 3.21484 171.352 3.625 171.352 4.05859ZM170.525 28H165.691V9.17383H170.525V28ZM183.639 28C182.479 28 181.389 27.7832 180.369 27.3496C179.35 26.9043 178.453 26.3008 177.68 25.5391C176.918 24.7656 176.314 23.8691 175.869 22.8496C175.436 21.8301 175.219 20.7402 175.219 19.5801V13.9902H172.881V9.20898H175.219V1.68555H180V9.20898H187.277V13.9902H180V19.5801C180 20.084 180.094 20.5586 180.281 21.0039C180.469 21.4375 180.727 21.8184 181.055 22.1465C181.383 22.4746 181.77 22.7383 182.215 22.9375C182.66 23.125 183.135 23.2188 183.639 23.2188H187.277V28H183.639ZM194.52 35.1719V30.3379L197.191 30.373C197.66 30.373 198.111 30.2969 198.545 30.1445C198.979 29.9922 199.377 29.7812 199.74 29.5117C200.115 29.2422 200.443 28.9199 200.725 28.5449C201.006 28.1816 201.234 27.7832 201.41 27.3496C200.883 27.5723 200.344 27.7949 199.793 28.0176C199.254 28.2402 198.709 28.3516 198.158 28.3516C196.998 28.3516 195.908 28.1465 194.889 27.7363C193.869 27.3262 192.973 26.7461 192.199 25.9961C191.438 25.2344 190.834 24.3145 190.389 23.2363C189.955 22.1465 189.738 20.9277 189.738 19.5801V9.17383H194.52V19.5801C194.52 20.248 194.613 20.834 194.801 21.3379C195 21.8301 195.264 22.2461 195.592 22.5859C195.92 22.9141 196.301 23.1602 196.734 23.3242C197.18 23.4883 197.654 23.5703 198.158 23.5703C198.65 23.5703 199.113 23.459 199.547 23.2363C199.992 23.002 200.379 22.6973 200.707 22.3223C201.035 21.9473 201.293 21.5254 201.48 21.0566C201.668 20.5762 201.762 20.084 201.762 19.5801V9.17383H206.596V25.627C206.584 26.9512 206.326 28.1934 205.822 29.3535C205.318 30.5137 204.627 31.5273 203.748 32.3945C202.881 33.2617 201.867 33.9473 200.707 34.4512C199.547 34.9551 198.305 35.207 196.98 35.207L194.52 35.1719Z" fill="black"/>
</svg>
